<svg width="16" height="16" viewBox="0 0 123 123" fill="none" xmlns="http://www.w3.org/2000/svg">
<g clip-path="url(#clip0_708_2)">
<path fill-rule="evenodd" clip-rule="evenodd" d="M10.27 0H112.61C118.26 0 122.88 4.62 122.88 10.27V112.61C122.88 118.26 118.26 122.88 112.61 122.88H10.27C4.62 122.88 0 118.26 0 112.61V10.27C0 4.62 4.62 0 10.27 0ZM51.45 86.83C49.4 87.51 47.31 88.14 45.26 88.82C43.21 89.5 41.17 90.18 39.07 90.87C34.19 92.44 31.52 93.34 30.94 93.49C30.36 93.65 30.73 91.39 31.94 86.67L35.82 71.82L65.09 41.4L80.67 56.4L51.45 86.83ZM80.62 30.38C79.89 29.7 79.05 29.33 78.1 29.38C77.16 29.38 76.32 29.75 75.63 30.48L70.07 36.25L85.65 51.31L91.26 45.43C91.94 44.75 92.2 43.86 92.2 42.91C92.2 41.97 91.83 41.07 91.15 40.44L80.62 30.38Z" fill="#5176F9"/>
</g>
<defs>
<clipPath id="clip0_708_2">
<rect width="122.88" height="122.88" fill="white"/>
</clipPath>
</defs>
</svg>
